<svg xmlns="http://www.w3.org/2000/svg" id="Layer_1" data-name="Layer 1" viewBox="0 0 400 400"><defs><style>.cls-1{fill:#f3b276}</style></defs><title>Artboard 6</title><path d="M154.67,47.05a38.62,38.62,0,0,1-3.33,15.86,36.14,36.14,0,0,1-10.07,13.14,47.62,47.62,0,0,1-15.92,8.47,69.26,69.26,0,0,1-21.25,3H97.42V62l6.88.21a41.15,41.15,0,0,0,7.79-.44,21,21,0,0,0,5.53-1.59,6.69,6.69,0,0,0,2.49-1.81,1.66,1.66,0,0,0,.35-1.19,3,3,0,0,0-.11-1,4.8,4.8,0,0,0-.73-1.18c-.58-.67-1.19-1.34-1.85-2A34.75,34.75,0,0,1,115.05,50a18.08,18.08,0,0,1-2.71-4.65,17.28,17.28,0,0,1-1.18-6.61,18.84,18.84,0,0,1,5.39-13.16,19.36,19.36,0,0,1,6.31-4.24,20.94,20.94,0,0,1,8.24-1.59,21.53,21.53,0,0,1,10.26,2.48,23.05,23.05,0,0,1,7.51,6.45,27.61,27.61,0,0,1,4.38,8.68A33.52,33.52,0,0,1,154.67,47.05Z" class="cls-1"/><rect width="104.39" height="27.85" x="204.5" y="64.02" class="cls-1"/><rect width="82.89" height="27.93" x="91.11" y="126.02" class="cls-1"/><rect width="82.89" height="27.91" x="91.11" y="166.73" class="cls-1"/><rect width="82.89" height="27.93" x="215.25" y="126.02" class="cls-1"/><rect width="82.89" height="27.91" x="215.25" y="166.73" class="cls-1"/><polygon points="136.56 255.27 136.56 352.66 160.89 352.66 160.89 380.28 105.02 380.28 105.02 227.65 160.89 227.65 160.89 255.27 136.56 255.27" class="cls-1"/><polygon points="281.57 227.65 281.57 380.28 225.85 380.28 225.85 352.66 250.01 352.66 250.01 255.27 225.85 255.27 225.85 227.65 281.57 227.65" class="cls-1"/></svg>